<svg xmlns="http://www.w3.org/2000/svg" viewBox="0 0 512 512">
  <defs>
    <linearGradient id="bg" x1="0%" y1="0%" x2="100%" y2="100%">
      <stop offset="0%" stop-color="#4F46E5"/>
      <stop offset="50%" stop-color="#EC4899"/>
      <stop offset="100%" stop-color="#F59E0B"/>
    </linearGradient>
  </defs>
  <rect width="512" height="512" rx="112" fill="url(#bg)"/>
  <path fill="#ffffff" d="M256 64C150 64 64 150 64 256c0 84.8 55 156.7 131.3 182 .9.2 1.9.2 2.8.2 8.3 0 11.5-6.1 11.5-11.4 0-5.6-.2-24-.3-44.1-53.4 11.6-64.7-25.8-64.7-25.8-8.7-22.1-21.3-28-21.3-28-17.5-12 .1-11.7 .1-11.7 19.3 1.4 29.5 19.8 29.5 19.8 17.1 29.3 44.9 20.8 55.9 15.9 1.7-12.4 6.7-20.8 12.2-25.6-42.6-4.8-87.5-21.3-87.5-94.8 0-20.9 7.5-38 19.8-51.4-2-4.9-8.6-24.3 1.9-50.7 0 0 16.1-5.2 52.8 19.7 15.3-4.3 31.7-6.4 48.1-6.5 16.3 .1 32.7 2.2 48.1 6.5 36.6-24.9 52.7-19.7 52.7-19.7 10.5 26.4 3.9 45.9 1.9 50.7 12.3 13.4 19.7 30.5 19.7 51.4 0 73.7-44.9 89.9-87.7 94.6 6.9 5.9 13 17.6 13 35.5 0 25.6-.2 46.3-.2 52.6 0 5.4 3.1 11.5 11.6 11.4 76.2-25.5 131.2-97.3 131.2-182.1C448 150 361.9 64 256 64z"/>
</svg>
